<svg width="663" height="161" viewBox="0 0 663 161" fill="none" xmlns="http://www.w3.org/2000/svg">
<path fill-rule="evenodd" clip-rule="evenodd" d="M325.14 42.1492H301.338V118.802H325.14V42.1492ZM272.806 72.3563C270.246 63.5074 263.512 59.3983 254.502 59.3983C242.843 59.3983 233.734 67.791 233.734 80.4753C233.734 93.0684 242.839 101.556 254.502 101.556C263.512 101.556 270.246 97.4512 272.806 88.4159H295.56C292.527 113.42 273.465 121.36 254.502 121.36C227.952 121.36 210.123 104.844 210.123 80.4793C210.123 56.1142 227.948 39.5984 254.502 39.5984C273.275 39.5984 292.527 47.539 295.56 72.3563H272.806ZM648.393 93.2513C655.602 88.7773 660.626 81.2968 660.626 70.802C660.626 51.4582 648.587 42.1492 626.682 42.1492H582.397V118.802H606.198V97.999H628.009L639.578 118.802H663L648.397 93.2513H648.393ZM625.165 80.7455H606.202V61.2193H625.165C632.748 61.2193 636.824 64.6859 636.824 70.9844C636.824 77.2829 632.748 80.7495 625.165 80.7495V80.7455ZM575.196 118.802H505.025V42.1492H575.196V60.5807H528.83V72.7177H573.49V88.1388H528.83V100.276H575.196V118.802ZM376.254 42.1492H332.258V118.802H356.059V100.736H376.349C397.776 100.736 410.293 91.3356 410.293 71.4405C410.293 51.5454 397.776 42.1492 376.254 42.1492ZM374.354 81.6578H356.051V61.2153H374.354C381.657 61.2153 386.302 64.6819 386.302 71.4366C386.302 78.2785 381.653 81.6578 374.354 81.6578ZM440.26 70.8932H474.015V42.1492H497.816V118.802H474.015V90.0545H440.26V118.802H416.459V42.1492H440.26V70.8932Z" fill="white"/>
<g filter="url(#filter0_f_235_3949)">
<path fill-rule="evenodd" clip-rule="evenodd" d="M83.071 49.9465H112.832C114.893 49.9465 115.923 52.3422 114.468 53.7423L56.3723 109.66C55.717 110.29 54.8845 110.691 54.0025 110.838C53.8788 110.857 53.7511 110.865 53.6233 110.865H32.2783H8.30801C7.03036 110.865 6 109.87 6 108.644V66.0181C6 64.8797 6.47397 63.8009 7.28589 63.0195L7.595 62.7221L21.6491 49.1969L36.4657 34.9379L65.8887 6.62632C67.2776 5.28967 69.6475 6.23365 69.6475 8.12559V37.0203C69.6475 38.1269 69.19 39.2136 68.3533 40.0148L55.0534 52.8142L40.2368 67.0731L32.9584 74.0776C32.5256 74.4941 32.2783 75.0613 32.2783 75.6523V83.2478C32.2783 84.4773 33.3128 85.4689 34.5863 85.4689H43.3815C43.9956 85.4689 44.5808 85.2349 45.0177 84.8145L79.9552 51.192C80.7713 50.4106 81.8964 49.9703 83.071 49.9465ZM133.118 50.0938H178.429C179.703 50.0938 180.737 51.0854 180.737 52.315V94.9411C180.737 96.0794 180.263 97.1583 179.451 97.9396L179.142 98.2411L165.088 111.766L150.271 126.025L120.857 154.333C119.468 155.669 117.098 154.726 117.098 152.834V123.935C117.098 122.832 117.555 121.746 118.392 120.94L131.692 108.141L146.508 93.8821L153.787 86.8775C154.224 86.4571 154.467 85.8939 154.467 85.3029V77.7074C154.467 76.4818 153.437 75.4863 152.159 75.4863H143.364C142.75 75.4863 142.16 75.7242 141.728 76.1407L106.79 109.763C105.97 110.545 104.849 110.985 103.674 111.009H73.9092C71.8485 111.009 70.8181 108.613 72.273 107.213L130.369 51.2996C131.024 50.669 131.857 50.2684 132.739 50.1216C132.866 50.1018 132.99 50.0938 133.118 50.0938Z" fill="url(#paint0_linear_235_3949)"/>
</g>
<path fill-rule="evenodd" clip-rule="evenodd" d="M83.071 49.9465H112.832C114.893 49.9465 115.923 52.3422 114.468 53.7423L56.3723 109.66C55.717 110.29 54.8845 110.691 54.0025 110.838C53.8788 110.857 53.7511 110.865 53.6233 110.865H32.2783H8.30801C7.03036 110.865 6 109.87 6 108.644V66.0181C6 64.8797 6.47397 63.8009 7.28589 63.0195L7.595 62.7221L21.6491 49.1969L36.4657 34.9379L65.8887 6.62632C67.2776 5.28967 69.6475 6.23365 69.6475 8.12559V37.0203C69.6475 38.1269 69.19 39.2136 68.3533 40.0148L55.0534 52.8142L40.2368 67.0731L32.9584 74.0776C32.5256 74.4941 32.2783 75.0613 32.2783 75.6523V83.2478C32.2783 84.4773 33.3128 85.4689 34.5863 85.4689H43.3815C43.9956 85.4689 44.5808 85.2349 45.0177 84.8145L79.9552 51.192C80.7713 50.4106 81.8964 49.9703 83.071 49.9465ZM133.118 50.0938H178.429C179.703 50.0938 180.737 51.0854 180.737 52.315V94.9411C180.737 96.0794 180.263 97.1583 179.451 97.9396L179.142 98.2411L165.088 111.766L150.271 126.025L120.857 154.333C119.468 155.669 117.098 154.726 117.098 152.834V123.935C117.098 122.832 117.555 121.746 118.392 120.94L131.692 108.141L146.508 93.8821L153.787 86.8775C154.224 86.4571 154.467 85.8939 154.467 85.3029V77.7074C154.467 76.4818 153.437 75.4863 152.159 75.4863H143.364C142.75 75.4863 142.16 75.7242 141.728 76.1407L106.79 109.763C105.97 110.545 104.849 110.985 103.674 111.009H73.9092C71.8485 111.009 70.8181 108.613 72.273 107.213L130.369 51.2996C131.024 50.669 131.857 50.2684 132.739 50.1216C132.866 50.1018 132.99 50.0938 133.118 50.0938Z" fill="url(#paint1_linear_235_3949)"/>
<defs>
<filter id="filter0_f_235_3949" x="0.7" y="0.7" width="185.337" height="159.559" filterUnits="userSpaceOnUse" color-interpolation-filters="sRGB">
<feFlood flood-opacity="0" result="BackgroundImageFix"/>
<feBlend mode="normal" in="SourceGraphic" in2="BackgroundImageFix" result="shape"/>
<feGaussianBlur stdDeviation="2.65" result="effect1_foregroundBlur_235_3949"/>
</filter>
<linearGradient id="paint0_linear_235_3949" x1="6" y1="62.2422" x2="129.999" y2="158.858" gradientUnits="userSpaceOnUse">
<stop stop-color="#23FFA8"/>
<stop offset="0.381756" stop-color="#4B90EA"/>
<stop offset="1" stop-color="#8749EF"/>
</linearGradient>
<linearGradient id="paint1_linear_235_3949" x1="6" y1="62.2422" x2="129.999" y2="158.858" gradientUnits="userSpaceOnUse">
<stop stop-color="#23FFA8"/>
<stop offset="0.381756" stop-color="#4B90EA"/>
<stop offset="1" stop-color="#8749EF"/>
</linearGradient>
</defs>
</svg>
