<svg width="175" height="149" viewBox="0 0 175 149" fill="none" xmlns="http://www.w3.org/2000/svg">
<path fill-rule="evenodd" clip-rule="evenodd" d="M77.071 43.9465H106.832C108.893 43.9465 109.923 46.3422 108.468 47.7423L50.3723 103.66C49.717 104.29 48.8845 104.691 48.0025 104.838C47.8788 104.857 47.7511 104.865 47.6233 104.865H26.2783H2.30801C1.03036 104.865 0 103.87 0 102.644V60.0181C0 58.8797 0.473966 57.8009 1.28589 57.0195L1.595 56.7221L15.6491 43.1969L30.4657 28.9379L59.8887 0.626317C61.2776 -0.710334 63.6475 0.233651 63.6475 2.12559V31.0203C63.6475 32.1269 63.19 33.2136 62.3533 34.0148L49.0534 46.8142L34.2368 61.0731L26.9584 68.0776C26.5256 68.4941 26.2783 69.0613 26.2783 69.6523V77.2478C26.2783 78.4773 27.3128 79.4689 28.5863 79.4689H37.3815C37.9956 79.4689 38.5808 79.2349 39.0177 78.8145L73.9552 45.192C74.7713 44.4106 75.8964 43.9703 77.071 43.9465ZM127.118 44.0938H172.429C173.703 44.0938 174.737 45.0854 174.737 46.315V88.9411C174.737 90.0794 174.263 91.1583 173.451 91.9396L173.142 92.2411L159.088 105.766L144.271 120.025L114.857 148.333C113.468 149.669 111.098 148.726 111.098 146.834V117.935C111.098 116.832 111.555 115.746 112.392 114.94L125.692 102.141L140.508 87.8821L147.787 80.8775C148.224 80.4571 148.467 79.8939 148.467 79.3029V71.7074C148.467 70.4818 147.437 69.4863 146.159 69.4863H137.364C136.75 69.4863 136.16 69.7242 135.728 70.1407L100.79 103.763C99.9699 104.545 98.8489 104.985 97.6743 105.009H67.9092C65.8485 105.009 64.8181 102.613 66.273 101.213L124.369 45.2996C125.024 44.669 125.857 44.2684 126.739 44.1216C126.866 44.1018 126.99 44.0938 127.118 44.0938Z" fill="url(#paint0_linear_235_3952)"/>
<defs>
<linearGradient id="paint0_linear_235_3952" x1="-4.80242e-06" y1="56.2422" x2="123.999" y2="152.858" gradientUnits="userSpaceOnUse">
<stop stop-color="#23FFA8"/>
<stop offset="0.381756" stop-color="#4B90EA"/>
<stop offset="1" stop-color="#8749EF"/>
</linearGradient>
</defs>
</svg>
